<svg width="512" height="512" viewBox="0 0 512 512" fill="none" xmlns="http://www.w3.org/2000/svg">
<path d="M406.718 0.0709539C407.168 0.0517632 407.618 0.0372891 408.068 0.0278621C467.404 -1.24984 512.384 41.5499 511.843 101.008C511.625 124.679 511.857 148.719 511.86 172.42L511.87 313.91L511.884 380.276C511.89 396.942 512.764 416.503 509.623 432.66C506.106 451.308 497.249 468.523 484.132 482.206C470.589 496.222 453.125 505.797 434.043 509.665C419.364 512.722 405.401 511.867 390.565 511.891L333.073 511.79H189.165C161.521 511.796 132.981 511.524 105.408 511.985C77.3283 512.355 53.442 505.985 32.0653 486.673C11.2391 467.86 1.16795 441.555 0.18881 413.94C-0.0705019 406.621 0.110212 398.541 0.119617 391.127L0.226768 346.598L0.222063 209.994L0.186462 132.213C0.171347 115.753 -0.840037 94.4489 2.00903 78.7395C5.26117 61.3469 13.3018 45.2129 25.2228 32.1612C38.4964 17.4446 56.0207 7.2466 75.3525 2.98929C92.059 -0.729333 106.955 0.257819 123.812 0.272296L171.721 0.294181L325.693 0.295527L376.78 0.268248C386.537 0.259494 397.048 0.460155 406.718 0.0709539Z" fill="#A4F670"/>
<path d="M335.23 149.69C351.071 147.858 363.809 158.922 361.96 175.482C361.177 182.528 355.579 190.021 351.543 195.767C347.411 201.539 343.205 207.255 338.923 212.913C326.392 229.742 326.892 237.302 343.332 251.709C353 260.179 363.252 268.319 373.151 276.534C404.427 302.495 435.496 329.334 460.897 361.256C475.62 379.734 483.227 403.384 479.878 426.983C476.761 449.271 464.844 469.38 446.791 482.82C428.649 496.36 406.917 501.448 384.601 498.18C372.213 496.341 360.338 491.96 349.717 485.315C335.263 476.081 323.723 463.673 312.122 451.284C279.463 416.4 254.327 377.149 225.954 339.063L216.156 326.014C221.883 317.11 227.53 308.15 233.096 299.142C248.531 303.589 253.677 314.417 262.599 326.721C287.141 360.573 311.282 394.476 339.606 425.351C357.607 444.97 376.212 466.14 405.889 460.806C417.623 458.778 428.017 452.039 434.657 442.159C443.697 428.879 444.857 411.76 438.458 397.107C426.908 370.665 366.624 320.109 342.658 299.727C329.693 288.696 315.145 277.769 304.708 264.263C298.738 256.538 294.225 247.304 292.404 237.684C287.386 211.201 309.061 192.147 322.615 172.205L316.687 177.008C314.489 174.425 311.556 171.477 309.193 168.971C316.526 159.372 323.016 152.261 335.23 149.69Z" fill="#070707"/>
<path d="M103.707 13.4766C108.782 12.7018 118.09 12.9876 123.203 13.5139C155.172 16.8061 176.145 36.8688 197.319 58.8571C233.719 96.6565 263.08 139.872 295.644 180.886C288.834 191.035 282.18 201.283 275.672 211.627C263.425 202.652 259.572 195.98 250.583 183.891C242.926 173.536 235.153 163.268 227.264 153.088C204.667 123.858 180.43 93.9397 153.527 68.5682C141.654 57.3706 127.603 49.8425 110.826 50.7036C99.1237 51.3426 88.1553 56.6071 80.3362 65.3377C67.322 79.829 64.6438 103.001 75.1816 119.168C89.6743 141.402 113.776 162.873 133.413 180.457C147.256 193.335 162.587 205.363 176.952 217.683C186.457 225.836 198.091 234.945 205.884 244.671C211.158 251.146 215.049 258.63 217.321 266.667C225.418 296.302 202.56 314.317 188.731 338.213C190.823 335.822 192.143 333.61 195.169 333.016C198.417 333.638 200.603 337.821 202.694 340.75C197.112 349.937 187.262 359.939 176.338 362.132C170.494 363.306 164.424 362.042 159.531 358.637C154.271 355.053 150.708 349.786 149.688 343.476C149.013 339.373 149.314 335.171 150.57 331.205C153.937 320.589 167.933 303.541 174.646 293.746C186.979 275.745 178.722 268.322 164.449 256.254C134.126 230.612 102.677 206.003 74.8972 177.528C64.108 166.469 52.4699 154.266 44.3985 141.085C38.3409 131.26 34.245 120.355 32.3384 108.972C28.6321 87.1175 33.9003 64.6926 46.9499 46.7747C61.012 27.4661 80.4701 17.1735 103.707 13.4766Z" fill="#070707"/>
<path d="M137.97 254.283C146.556 260.843 156.963 270.322 165.101 277.571C138.621 307.677 111.635 337.723 85.8754 368.452C73.5591 383.147 63.4504 397.3 65.6316 417.381C67.0369 429.812 73.4181 441.144 83.3193 448.794C93.1875 456.537 105.985 459.758 118.381 458.24C126.757 457.165 134.734 454.028 141.594 449.105C152.922 440.984 167.911 422.837 176.98 411.915C191.852 393.843 206.411 375.517 220.647 356.945C228.154 366.156 236.904 378.988 243.832 388.83L236.94 397.536C220.186 418.828 203.727 440.215 185.442 460.263C166.719 480.796 142.867 495.279 114.316 496.001C91.9095 496.439 70.2391 487.993 54.0392 472.506C37.639 456.665 28.2655 434.91 28.0118 412.108C27.3798 374.394 52.3075 348.244 75.545 321.717C95.8237 298.755 116.638 276.269 137.97 254.283Z" fill="#070707"/>
<path d="M397.609 17.7806C420.014 17.4533 441.642 25.9727 457.808 41.4906C474.305 57.1472 483.751 78.8218 483.987 101.564C484.708 142.646 454.083 171.869 428.338 200.083C410.559 219.633 392.468 238.903 374.081 257.88C366.214 250.25 354.741 241.455 346.068 233.583C372.694 205.393 398.759 176.675 424.24 147.448C426.607 144.736 428.923 141.981 431.187 139.185C441.562 126.165 448.419 113.311 446.339 96.1332C444.886 83.924 438.624 72.799 428.937 65.2266C418.868 57.4528 406.14 53.9545 393.515 55.4886C385.423 56.5294 377.703 59.5226 371.025 64.2098C359.956 72.0591 341.739 93.3829 332.434 104.434C319.46 119.843 304.416 137.23 292.112 153.18C284.788 142.881 276.087 131.795 268.457 121.602C274.258 115.097 280.318 107.285 285.953 100.463C295.8 88.3962 305.916 76.5529 316.301 64.9432C340.135 38.2102 359.952 19.9396 397.609 17.7806Z" fill="#070707"/>
<path d="M296.209 292.59C302.486 292.142 308.825 293.501 313.324 298.16C325.401 310.662 337.875 322.876 349.792 335.511C351.594 337.416 353.608 341.071 354.457 343.414C356.499 348.993 356.093 355.171 353.334 360.43C350.066 366.792 345.119 369.041 338.781 370.989C331.386 371.913 325.085 369.899 319.964 364.533C307.995 351.983 295.799 339.123 284.071 326.395C275.855 317.477 277.572 303.079 287.48 296.349C290.447 294.331 292.819 293.562 296.209 292.59Z" fill="#070707"/>
<path d="M176.485 143.108C193.032 141.077 201.043 156.867 211.815 166.724C218.341 172.696 224.832 179.883 230.913 186.237C236.768 192.354 238.611 202.494 234.662 210.023C231.387 216.59 226.971 218.791 220.448 221.034C203.972 223.682 194.97 206.953 184.185 197.187C178.269 190.609 170.736 184.699 165.231 177.844C153.934 163.776 160.366 147.75 176.485 143.108Z" fill="#070707"/>
</svg>
